<svg viewBox="0 0 29 40" xmlns="http://www.w3.org/2000/svg"><g fill="none"><path d="M28.8645358 14.4232923c0 3.0011198-.8948356 5.7782754-2.4607979 8.0627099C23.8087147 26.3381859 14.4576829 40 14.4576829 40S5.06190931 26.3381859 2.46688613 22.5307951C.90092386 20.2463606.00608828 17.4692049.00608828 14.4680851.00608828 6.49496081 6.49364624 0 14.4576829 0c7.9640367 0 14.4068529 6.49496081 14.4068529 14.4232923z" fill="#000"/><path d="M10.9589041 6.39269406h1.4177594l.0088317 2.82692153.0262606-.02633875 3.5707371-2.80058278h2.056689c-1.4118195 1.21064458-2.8241079 2.42144547-4.2359274 3.63201194l4.2359274 3.4570194h-2.074196l-.7526474-.5950838v1.1989211h2.8355969v1.4178375h-2.8355969v3.9646461l1.4177594 1.6628582v-5.0235888h1.4178375v7.0890313h-1.4177593l-4.2535126-4.8660252v4.8660252h-1.4177594v-7.0890313h1.4177594l1.4178375 1.6716118v-2.2755273h-2.8355969v-1.4177593h2.8355969V11.766346l-1.4090058-1.111464h-.0087536v2.8269215h-1.4178375V6.39269406z" fill="#FFF"/></g></svg>