<?xml version="1.0" standalone="no"?>
<!DOCTYPE svg PUBLIC "-//W3C//DTD SVG 20010904//EN"
 "http://www.w3.org/TR/2001/REC-SVG-20010904/DTD/svg10.dtd">
<svg version="1.0" xmlns="http://www.w3.org/2000/svg"
 width="1024.000000pt" height="1024.000000pt" viewBox="0 0 1024.000000 1024.000000"
 preserveAspectRatio="xMidYMid meet">
<metadata>
Created by potrace 1.11, written by Peter Selinger 2001-2013
</metadata>
<g transform="translate(0.000000,1024.000000) scale(0.100000,-0.100000)"
fill="#000000" stroke="none">
<path d="M3369 9258 c0 -13 -1 -804 -1 -1758 l-1 -1735 352 -2 351 -2 0 700
c0 384 3 699 8 699 4 0 41 -28 82 -61 41 -33 89 -71 105 -84 185 -146 308
-243 400 -315 l110 -85 0 -575 0 -575 -702 0 -703 0 -1 -35 c-1 -44 -1 -593 0
-640 l1 -35 702 2 703 1 0 -559 c0 -307 -2 -559 -6 -559 -3 0 -19 17 -35 37
-16 20 -34 41 -39 47 -6 6 -98 115 -205 241 -107 127 -210 248 -229 270 -20
22 -56 65 -81 95 -25 30 -60 71 -78 92 l-33 37 -350 0 -349 1 -1 -33 c-1 -44
-1 -3436 0 -3464 l1 -23 350 0 350 0 2 1205 3 1206 112 -128 c61 -70 120 -137
130 -149 33 -38 127 -146 164 -188 20 -23 85 -97 145 -166 60 -69 111 -127
114 -130 3 -3 54 -61 114 -130 60 -69 135 -154 166 -190 31 -36 90 -103 131
-150 40 -47 78 -90 84 -96 5 -6 33 -37 60 -69 28 -32 55 -63 60 -69 9 -9 164
-187 246 -281 46 -53 200 -228 263 -299 70 -79 75 -84 136 -156 25 -29 50 -58
55 -64 6 -6 37 -41 69 -79 l58 -67 353 0 352 0 0 1760 0 1759 -351 -2 -351 -2
-2 -1235 c-1 -679 -2 -1239 -2 -1243 -1 -5 -33 29 -72 75 -39 46 -90 106 -114
133 -23 28 -149 175 -279 327 l-236 277 0 923 c-1 508 -1 951 0 985 l0 61 643
1 c353 0 669 0 703 0 l61 1 0 350 1 350 -137 0 c-75 1 -391 1 -703 0 l-568 0
-1 48 c-2 172 1 536 4 539 4 3 207 -153 282 -216 11 -9 36 -28 55 -43 l35 -26
515 0 c511 0 514 0 490 20 -37 28 -30 23 -380 308 -179 145 -330 269 -337 275
-6 5 -62 51 -125 102 -62 51 -264 215 -448 365 -184 151 -384 314 -445 362
-60 49 -112 92 -115 95 -3 3 -52 44 -110 90 -58 47 -109 87 -113 91 -5 4 36
45 90 91 54 46 104 89 111 96 7 7 34 29 60 50 26 21 63 52 82 70 19 17 46 41
60 52 14 12 34 29 45 39 11 10 83 72 160 137 77 66 145 124 151 130 6 5 35 30
64 55 69 58 203 173 210 180 4 5 103 89 155 132 11 9 31 27 45 39 14 12 81 69
150 127 69 59 127 109 130 113 3 3 68 59 145 124 77 65 148 126 157 134 9 9
75 66 146 126 l128 110 -505 3 c-505 2 -506 2 -536 -20 -16 -11 -91 -69 -165
-128 -165 -130 -555 -436 -600 -470 -18 -14 -60 -47 -94 -74 -34 -26 -77 -61
-96 -76 -100 -79 -789 -618 -797 -623 -4 -3 -9 252 -10 566 -1 315 -2 629 -2
700 l-1 127 -350 0 -350 0 -1 -22z"/>
</g>
</svg>
